<?xml version="1.0" encoding="us-ascii" standalone="no"?><svg xmlns="http://www.w3.org/2000/svg" xmlns:xlink="http://www.w3.org/1999/xlink" contentStyleType="text/css" height="446px" preserveAspectRatio="none" style="width:1151px;height:446px;background:#FFFFFF;" version="1.1" viewBox="0 0 1151 446" width="1151px" zoomAndPan="magnify"><defs/><g><ellipse cx="560.5" cy="20" fill="#222222" rx="10" ry="10" style="stroke:#222222;stroke-width:1.0;"/><rect fill="#F1F1F1" height="33.9688" rx="12.5" ry="12.5" style="stroke:#181818;stroke-width:0.5;" width="243" x="439" y="50"/><text fill="#000000" font-family="sans-serif" font-size="12" lengthAdjust="spacing" textLength="223" x="449" y="71.1387">User selects text generation option</text><polygon fill="#F1F1F1" points="118.5,103.9688,272.5,103.9688,284.5,115.9688,272.5,127.9688,118.5,127.9688,106.5,115.9688,118.5,103.9688" style="stroke:#181818;stroke-width:0.5;"/><text fill="#000000" font-family="sans-serif" font-size="11" lengthAdjust="spacing" textLength="20" x="199.5" y="138.1792">yes</text><text fill="#000000" font-family="sans-serif" font-size="11" lengthAdjust="spacing" textLength="154" x="118.5" y="119.7769">Option == "Generate Text"</text><rect fill="#F1F1F1" height="33.9688" rx="12.5" ry="12.5" style="stroke:#181818;stroke-width:0.5;" width="169" x="111" y="160.7734"/><text fill="#000000" font-family="sans-serif" font-size="12" lengthAdjust="spacing" textLength="149" x="121" y="181.9121">User inputs text prompt</text><rect fill="#F1F1F1" height="33.9688" rx="12.5" ry="12.5" style="stroke:#181818;stroke-width:0.5;" width="211" x="90" y="218.1445"/><text fill="#000000" font-family="sans-serif" font-size="12" lengthAdjust="spacing" textLength="191" x="100" y="239.2832">Text Generator generates text</text><polygon fill="#F1F1F1" points="114,275.5156,277,275.5156,289,287.5156,277,299.5156,114,299.5156,102,287.5156,114,275.5156" style="stroke:#181818;stroke-width:0.5;"/><text fill="#000000" font-family="sans-serif" font-size="11" lengthAdjust="spacing" textLength="163" x="114" y="291.3237">Text Generation Successful?</text><text fill="#000000" font-family="sans-serif" font-size="11" lengthAdjust="spacing" textLength="20" x="82" y="284.9214">yes</text><text fill="#000000" font-family="sans-serif" font-size="11" lengthAdjust="spacing" textLength="14" x="289" y="284.9214">no</text><rect fill="#F1F1F1" height="33.9688" rx="12.5" ry="12.5" style="stroke:#181818;stroke-width:0.5;" width="162" x="11" y="309.5156"/><text fill="#000000" font-family="sans-serif" font-size="12" lengthAdjust="spacing" textLength="142" x="21" y="330.6543">Display generated text</text><rect fill="#F1F1F1" height="33.9688" rx="12.5" ry="12.5" style="stroke:#181818;stroke-width:0.5;" width="160" x="219" y="309.5156"/><text fill="#000000" font-family="sans-serif" font-size="12" lengthAdjust="spacing" textLength="140" x="229" y="330.6543">Display error message</text><polygon fill="#F1F1F1" points="195.5,349.4844,207.5,361.4844,195.5,373.4844,183.5,361.4844,195.5,349.4844" style="stroke:#181818;stroke-width:0.5;"/><polygon fill="#F1F1F1" points="492,103.9688,657,103.9688,669,115.9688,657,127.9688,492,127.9688,480,115.9688,492,103.9688" style="stroke:#181818;stroke-width:0.5;"/><text fill="#000000" font-family="sans-serif" font-size="11" lengthAdjust="spacing" textLength="14" x="578.5" y="138.1792">no</text><text fill="#000000" font-family="sans-serif" font-size="11" lengthAdjust="spacing" textLength="165" x="492" y="119.7769">Option == "Summarize Text"</text><text fill="#000000" font-family="sans-serif" font-size="11" lengthAdjust="spacing" textLength="206" x="669" y="113.3745">Option == "Convert Text to Speech"</text><rect fill="#F1F1F1" height="33.9688" rx="12.5" ry="12.5" style="stroke:#181818;stroke-width:0.5;" width="207" x="471" y="160.7734"/><text fill="#000000" font-family="sans-serif" font-size="12" lengthAdjust="spacing" textLength="187" x="481" y="181.9121">User inputs text to summarize</text><rect fill="#F1F1F1" height="33.9688" rx="12.5" ry="12.5" style="stroke:#181818;stroke-width:0.5;" width="227" x="461" y="218.1445"/><text fill="#000000" font-family="sans-serif" font-size="12" lengthAdjust="spacing" textLength="207" x="471" y="239.2832">Text Summarizer summarizes text</text><polygon fill="#F1F1F1" points="496,275.5156,653,275.5156,665,287.5156,653,299.5156,496,299.5156,484,287.5156,496,275.5156" style="stroke:#181818;stroke-width:0.5;"/><text fill="#000000" font-family="sans-serif" font-size="11" lengthAdjust="spacing" textLength="157" x="496" y="291.3237">Summarization Successful?</text><text fill="#000000" font-family="sans-serif" font-size="11" lengthAdjust="spacing" textLength="20" x="464" y="284.9214">yes</text><text fill="#000000" font-family="sans-serif" font-size="11" lengthAdjust="spacing" textLength="14" x="665" y="284.9214">no</text><rect fill="#F1F1F1" height="33.9688" rx="12.5" ry="12.5" style="stroke:#181818;stroke-width:0.5;" width="170" x="389" y="309.5156"/><text fill="#000000" font-family="sans-serif" font-size="12" lengthAdjust="spacing" textLength="150" x="399" y="330.6543">Display summarized text</text><rect fill="#F1F1F1" height="33.9688" rx="12.5" ry="12.5" style="stroke:#181818;stroke-width:0.5;" width="160" x="595" y="309.5156"/><text fill="#000000" font-family="sans-serif" font-size="12" lengthAdjust="spacing" textLength="140" x="605" y="330.6543">Display error message</text><polygon fill="#F1F1F1" points="574.5,349.4844,586.5,361.4844,574.5,373.4844,562.5,361.4844,574.5,349.4844" style="stroke:#181818;stroke-width:0.5;"/><rect fill="#F1F1F1" height="33.9688" rx="12.5" ry="12.5" style="stroke:#181818;stroke-width:0.5;" width="188" x="874.75" y="157.3711"/><text fill="#000000" font-family="sans-serif" font-size="12" lengthAdjust="spacing" textLength="168" x="884.75" y="178.5098">User inputs text to convert</text><rect fill="#F1F1F1" height="33.9688" rx="12.5" ry="12.5" style="stroke:#181818;stroke-width:0.5;" width="265" x="836.25" y="214.7422"/><text fill="#000000" font-family="sans-serif" font-size="12" lengthAdjust="spacing" textLength="245" x="846.25" y="235.8809">Text to Speech Converter converts text</text><polygon fill="#F1F1F1" points="900.75,272.1133,1036.75,272.1133,1048.75,284.1133,1036.75,296.1133,900.75,296.1133,888.75,284.1133,900.75,272.1133" style="stroke:#181818;stroke-width:0.5;"/><text fill="#000000" font-family="sans-serif" font-size="11" lengthAdjust="spacing" textLength="136" x="900.75" y="287.9214">Conversion Successful?</text><text fill="#000000" font-family="sans-serif" font-size="11" lengthAdjust="spacing" textLength="20" x="868.75" y="281.519">yes</text><text fill="#000000" font-family="sans-serif" font-size="11" lengthAdjust="spacing" textLength="14" x="1048.75" y="281.519">no</text><rect fill="#F1F1F1" height="33.9688" rx="12.5" ry="12.5" style="stroke:#181818;stroke-width:0.5;" width="165" x="795" y="306.1133"/><text fill="#000000" font-family="sans-serif" font-size="12" lengthAdjust="spacing" textLength="145" x="805" y="327.252">Play generated speech</text><rect fill="#F1F1F1" height="33.9688" rx="12.5" ry="12.5" style="stroke:#181818;stroke-width:0.5;" width="160" x="980" y="306.1133"/><text fill="#000000" font-family="sans-serif" font-size="12" lengthAdjust="spacing" textLength="140" x="990" y="327.252">Display error message</text><polygon fill="#F1F1F1" points="968.75,346.082,980.75,358.082,968.75,370.082,956.75,358.082,968.75,346.082" style="stroke:#181818;stroke-width:0.5;"/><ellipse cx="560.5" cy="424.4844" fill="none" rx="11" ry="11" style="stroke:#222222;stroke-width:1.0;"/><ellipse cx="560.5" cy="424.4844" fill="#222222" rx="6" ry="6" style="stroke:#222222;stroke-width:1.0;"/><line style="stroke:#181818;stroke-width:1.0;" x1="560.5" x2="560.5" y1="30" y2="50"/><polygon fill="#181818" points="556.5,40,560.5,50,564.5,40,560.5,44" style="stroke:#181818;stroke-width:1.0;"/><line style="stroke:#181818;stroke-width:1.0;" x1="195.5" x2="195.5" y1="194.7422" y2="218.1445"/><polygon fill="#181818" points="191.5,208.1445,195.5,218.1445,199.5,208.1445,195.5,212.1445" style="stroke:#181818;stroke-width:1.0;"/><line style="stroke:#181818;stroke-width:1.0;" x1="102" x2="92" y1="287.5156" y2="287.5156"/><line style="stroke:#181818;stroke-width:1.0;" x1="92" x2="92" y1="287.5156" y2="309.5156"/><polygon fill="#181818" points="88,299.5156,92,309.5156,96,299.5156,92,303.5156" style="stroke:#181818;stroke-width:1.0;"/><line style="stroke:#181818;stroke-width:1.0;" x1="289" x2="299" y1="287.5156" y2="287.5156"/><line style="stroke:#181818;stroke-width:1.0;" x1="299" x2="299" y1="287.5156" y2="309.5156"/><polygon fill="#181818" points="295,299.5156,299,309.5156,303,299.5156,299,303.5156" style="stroke:#181818;stroke-width:1.0;"/><line style="stroke:#181818;stroke-width:1.0;" x1="92" x2="92" y1="343.4844" y2="361.4844"/><line style="stroke:#181818;stroke-width:1.0;" x1="92" x2="183.5" y1="361.4844" y2="361.4844"/><polygon fill="#181818" points="173.5,357.4844,183.5,361.4844,173.5,365.4844,177.5,361.4844" style="stroke:#181818;stroke-width:1.0;"/><line style="stroke:#181818;stroke-width:1.0;" x1="299" x2="299" y1="343.4844" y2="361.4844"/><line style="stroke:#181818;stroke-width:1.0;" x1="299" x2="207.5" y1="361.4844" y2="361.4844"/><polygon fill="#181818" points="217.5,357.4844,207.5,361.4844,217.5,365.4844,213.5,361.4844" style="stroke:#181818;stroke-width:1.0;"/><line style="stroke:#181818;stroke-width:1.0;" x1="195.5" x2="195.5" y1="252.1133" y2="275.5156"/><polygon fill="#181818" points="191.5,265.5156,195.5,275.5156,199.5,265.5156,195.5,269.5156" style="stroke:#181818;stroke-width:1.0;"/><line style="stroke:#181818;stroke-width:1.0;" x1="574.5" x2="574.5" y1="194.7422" y2="218.1445"/><polygon fill="#181818" points="570.5,208.1445,574.5,218.1445,578.5,208.1445,574.5,212.1445" style="stroke:#181818;stroke-width:1.0;"/><line style="stroke:#181818;stroke-width:1.0;" x1="484" x2="474" y1="287.5156" y2="287.5156"/><line style="stroke:#181818;stroke-width:1.0;" x1="474" x2="474" y1="287.5156" y2="309.5156"/><polygon fill="#181818" points="470,299.5156,474,309.5156,478,299.5156,474,303.5156" style="stroke:#181818;stroke-width:1.0;"/><line style="stroke:#181818;stroke-width:1.0;" x1="665" x2="675" y1="287.5156" y2="287.5156"/><line style="stroke:#181818;stroke-width:1.0;" x1="675" x2="675" y1="287.5156" y2="309.5156"/><polygon fill="#181818" points="671,299.5156,675,309.5156,679,299.5156,675,303.5156" style="stroke:#181818;stroke-width:1.0;"/><line style="stroke:#181818;stroke-width:1.0;" x1="474" x2="474" y1="343.4844" y2="361.4844"/><line style="stroke:#181818;stroke-width:1.0;" x1="474" x2="562.5" y1="361.4844" y2="361.4844"/><polygon fill="#181818" points="552.5,357.4844,562.5,361.4844,552.5,365.4844,556.5,361.4844" style="stroke:#181818;stroke-width:1.0;"/><line style="stroke:#181818;stroke-width:1.0;" x1="675" x2="675" y1="343.4844" y2="361.4844"/><line style="stroke:#181818;stroke-width:1.0;" x1="675" x2="586.5" y1="361.4844" y2="361.4844"/><polygon fill="#181818" points="596.5,357.4844,586.5,361.4844,596.5,365.4844,592.5,361.4844" style="stroke:#181818;stroke-width:1.0;"/><line style="stroke:#181818;stroke-width:1.0;" x1="574.5" x2="574.5" y1="252.1133" y2="275.5156"/><polygon fill="#181818" points="570.5,265.5156,574.5,275.5156,578.5,265.5156,574.5,269.5156" style="stroke:#181818;stroke-width:1.0;"/><line style="stroke:#181818;stroke-width:1.0;" x1="968.75" x2="968.75" y1="191.3398" y2="214.7422"/><polygon fill="#181818" points="964.75,204.7422,968.75,214.7422,972.75,204.7422,968.75,208.7422" style="stroke:#181818;stroke-width:1.0;"/><line style="stroke:#181818;stroke-width:1.0;" x1="888.75" x2="877.5" y1="284.1133" y2="284.1133"/><line style="stroke:#181818;stroke-width:1.0;" x1="877.5" x2="877.5" y1="284.1133" y2="306.1133"/><polygon fill="#181818" points="873.5,296.1133,877.5,306.1133,881.5,296.1133,877.5,300.1133" style="stroke:#181818;stroke-width:1.0;"/><line style="stroke:#181818;stroke-width:1.0;" x1="1048.75" x2="1060" y1="284.1133" y2="284.1133"/><line style="stroke:#181818;stroke-width:1.0;" x1="1060" x2="1060" y1="284.1133" y2="306.1133"/><polygon fill="#181818" points="1056,296.1133,1060,306.1133,1064,296.1133,1060,300.1133" style="stroke:#181818;stroke-width:1.0;"/><line style="stroke:#181818;stroke-width:1.0;" x1="877.5" x2="877.5" y1="340.082" y2="358.082"/><line style="stroke:#181818;stroke-width:1.0;" x1="877.5" x2="956.75" y1="358.082" y2="358.082"/><polygon fill="#181818" points="946.75,354.082,956.75,358.082,946.75,362.082,950.75,358.082" style="stroke:#181818;stroke-width:1.0;"/><line style="stroke:#181818;stroke-width:1.0;" x1="1060" x2="1060" y1="340.082" y2="358.082"/><line style="stroke:#181818;stroke-width:1.0;" x1="1060" x2="980.75" y1="358.082" y2="358.082"/><polygon fill="#181818" points="990.75,354.082,980.75,358.082,990.75,362.082,986.75,358.082" style="stroke:#181818;stroke-width:1.0;"/><line style="stroke:#181818;stroke-width:1.0;" x1="968.75" x2="968.75" y1="248.7109" y2="272.1133"/><polygon fill="#181818" points="964.75,262.1133,968.75,272.1133,972.75,262.1133,968.75,266.1133" style="stroke:#181818;stroke-width:1.0;"/><line style="stroke:#181818;stroke-width:1.0;" x1="195.5" x2="195.5" y1="127.9688" y2="160.7734"/><polygon fill="#181818" points="191.5,150.7734,195.5,160.7734,199.5,150.7734,195.5,154.7734" style="stroke:#181818;stroke-width:1.0;"/><line style="stroke:#181818;stroke-width:1.0;" x1="195.5" x2="195.5" y1="373.4844" y2="393.4844"/><polygon fill="#181818" points="191.5,383.4844,195.5,393.4844,199.5,383.4844,195.5,387.4844" style="stroke:#181818;stroke-width:1.0;"/><line style="stroke:#181818;stroke-width:1.0;" x1="574.5" x2="574.5" y1="127.9688" y2="160.7734"/><polygon fill="#181818" points="570.5,150.7734,574.5,160.7734,578.5,150.7734,574.5,154.7734" style="stroke:#181818;stroke-width:1.0;"/><line style="stroke:#181818;stroke-width:1.0;" x1="574.5" x2="574.5" y1="373.4844" y2="393.4844"/><polygon fill="#181818" points="570.5,383.4844,574.5,393.4844,578.5,383.4844,574.5,387.4844" style="stroke:#181818;stroke-width:1.0;"/><line style="stroke:#181818;stroke-width:1.0;" x1="284.5" x2="480" y1="115.9688" y2="115.9688"/><polygon fill="#181818" points="470,111.9688,480,115.9688,470,119.9688,474,115.9688" style="stroke:#181818;stroke-width:1.0;"/><line style="stroke:#181818;stroke-width:1.0;" x1="560.5" x2="560.5" y1="83.9688" y2="88.9688"/><line style="stroke:#181818;stroke-width:1.0;" x1="560.5" x2="195.5" y1="88.9688" y2="88.9688"/><line style="stroke:#181818;stroke-width:1.0;" x1="195.5" x2="195.5" y1="88.9688" y2="103.9688"/><polygon fill="#181818" points="191.5,93.9688,195.5,103.9688,199.5,93.9688,195.5,97.9688" style="stroke:#181818;stroke-width:1.0;"/><line style="stroke:#181818;stroke-width:1.0;" x1="669" x2="968.75" y1="115.9688" y2="115.9688"/><line style="stroke:#181818;stroke-width:1.0;" x1="968.75" x2="968.75" y1="115.9688" y2="157.3711"/><polygon fill="#181818" points="964.75,147.3711,968.75,157.3711,972.75,147.3711,968.75,151.3711" style="stroke:#181818;stroke-width:1.0;"/><line style="stroke:#181818;stroke-width:1.0;" x1="968.75" x2="968.75" y1="370.082" y2="393.4844"/><polygon fill="#181818" points="964.75,383.4844,968.75,393.4844,972.75,383.4844,968.75,387.4844" style="stroke:#181818;stroke-width:1.0;"/><line style="stroke:#181818;stroke-width:1.0;" x1="195.5" x2="968.75" y1="393.4844" y2="393.4844"/><line style="stroke:#181818;stroke-width:1.0;" x1="560.5" x2="560.5" y1="393.4844" y2="413.4844"/><polygon fill="#181818" points="556.5,403.4844,560.5,413.4844,564.5,403.4844,560.5,407.4844" style="stroke:#181818;stroke-width:1.0;"/><!--SRC=[hPFDIiGm54RtUOfBLvrNS1XSABWIXIgkG-Ps9jWcuTvK7Pc7DpzDxNH45EsY3UJxpkr9wV5MQWDFbfxRphuU1Nj9NeYBHqO2nWwLP_3uvc671abwRGrO5nzheLkexz8QDXkeRd82uI7agnNuFHge3yWh0U7AJ6tSK92ERE_yEk_64em8IsKSvcZEn7dpM1pS34eXSpjqbsSJ4_TQi-laOG9kPq3i6A4szeiu4eMtw0DQxd1CcwrkHUmin9kXxoNfzuLvuPwBUmjSEdFz2KIV-yi3A9bVwa-y__0_iR-ovWN99_TerZX4jQ- -SLUvCJUVUZ3YGckCBGyW1_X7zlUdNvxJY3-uftluIQpx0000]--></g></svg>