<?xml version="1.0" encoding="us-ascii" standalone="no"?><svg xmlns="http://www.w3.org/2000/svg" xmlns:xlink="http://www.w3.org/1999/xlink" contentStyleType="text/css" height="349px" preserveAspectRatio="none" style="width:1238px;height:349px;background:#FFFFFF;" version="1.1" viewBox="0 0 1238 349" width="1238px" zoomAndPan="magnify"><defs/><g><!--class TextGenerator--><g id="elem_TextGenerator"><rect codeLine="2" fill="#F1F1F1" height="80.5938" id="TextGenerator" rx="2.5" ry="2.5" style="stroke:#181818;stroke-width:0.5;" width="180" x="7" y="39.6"/><ellipse cx="43.6" cy="55.6" fill="#ADD1B2" rx="11" ry="11" style="stroke:#181818;stroke-width:1.0;"/><path d="M46.5688,61.2406 Q45.9906,61.5375 45.35,61.6781 Q44.7094,61.8344 44.0063,61.8344 Q41.5063,61.8344 40.1781,60.1937 Q38.8656,58.5375 38.8656,55.4125 Q38.8656,52.2875 40.1781,50.6312 Q41.5063,48.975 44.0063,48.975 Q44.7094,48.975 45.35,49.1312 Q46.0063,49.2875 46.5688,49.5844 L46.5688,52.3031 Q45.9438,51.725 45.35,51.4594 Q44.7563,51.1781 44.1313,51.1781 Q42.7875,51.1781 42.1,52.2562 Q41.4125,53.3187 41.4125,55.4125 Q41.4125,57.5062 42.1,58.5844 Q42.7875,59.6469 44.1313,59.6469 Q44.7563,59.6469 45.35,59.3812 Q45.9438,59.1 46.5688,58.5219 L46.5688,61.2406 Z " fill="#000000"/><text fill="#000000" font-family="sans-serif" font-size="14" lengthAdjust="spacing" textLength="100" x="62.4" y="60.4467">TextGenerator</text><line style="stroke:#181818;stroke-width:0.5;" x1="8" x2="186" y1="71.6" y2="71.6"/><rect fill="none" height="6" style="stroke:#C82930;stroke-width:1.0;" width="6" x="15" y="82.2484"/><text fill="#000000" font-family="sans-serif" font-size="14" lengthAdjust="spacing" textLength="127" x="27" y="88.5951">text_model: Model</text><line style="stroke:#181818;stroke-width:0.5;" x1="8" x2="186" y1="95.8969" y2="95.8969"/><ellipse cx="18" cy="109.5453" fill="#84BE84" rx="3" ry="3" style="stroke:#038048;stroke-width:1.0;"/><text fill="#000000" font-family="sans-serif" font-size="14" lengthAdjust="spacing" textLength="154" x="27" y="112.892">generate_text(): string</text></g><!--class TextSummarizer--><g id="elem_TextSummarizer"><rect codeLine="7" fill="#F1F1F1" height="80.5938" id="TextSummarizer" rx="2.5" ry="2.5" style="stroke:#181818;stroke-width:0.5;" width="267" x="221.5" y="39.6"/><ellipse cx="294.75" cy="55.6" fill="#ADD1B2" rx="11" ry="11" style="stroke:#181818;stroke-width:1.0;"/><path d="M297.7188,61.2406 Q297.1406,61.5375 296.5,61.6781 Q295.8594,61.8344 295.1563,61.8344 Q292.6563,61.8344 291.3281,60.1937 Q290.0156,58.5375 290.0156,55.4125 Q290.0156,52.2875 291.3281,50.6312 Q292.6563,48.975 295.1563,48.975 Q295.8594,48.975 296.5,49.1312 Q297.1563,49.2875 297.7188,49.5844 L297.7188,52.3031 Q297.0938,51.725 296.5,51.4594 Q295.9063,51.1781 295.2813,51.1781 Q293.9375,51.1781 293.25,52.2562 Q292.5625,53.3187 292.5625,55.4125 Q292.5625,57.5062 293.25,58.5844 Q293.9375,59.6469 295.2813,59.6469 Q295.9063,59.6469 296.5,59.3812 Q297.0938,59.1 297.7188,58.5219 L297.7188,61.2406 Z " fill="#000000"/><text fill="#000000" font-family="sans-serif" font-size="14" lengthAdjust="spacing" textLength="112" x="315.25" y="60.4467">TextSummarizer</text><line style="stroke:#181818;stroke-width:0.5;" x1="222.5" x2="487.5" y1="71.6" y2="71.6"/><rect fill="none" height="6" style="stroke:#C82930;stroke-width:1.0;" width="6" x="229.5" y="82.2484"/><text fill="#000000" font-family="sans-serif" font-size="14" lengthAdjust="spacing" textLength="202" x="241.5" y="88.5951">summarization_model: Model</text><line style="stroke:#181818;stroke-width:0.5;" x1="222.5" x2="487.5" y1="95.8969" y2="95.8969"/><ellipse cx="232.5" cy="109.5453" fill="#84BE84" rx="3" ry="3" style="stroke:#038048;stroke-width:1.0;"/><text fill="#000000" font-family="sans-serif" font-size="14" lengthAdjust="spacing" textLength="241" x="241.5" y="112.892">summarize_text(text: string): string</text></g><!--class TextToSpeechConverter--><g id="elem_TextToSpeechConverter"><rect codeLine="12" fill="#F1F1F1" height="145.7813" id="TextToSpeechConverter" rx="2.5" ry="2.5" style="stroke:#181818;stroke-width:0.5;" width="298" x="523" y="7"/><ellipse cx="583.25" cy="23" fill="#ADD1B2" rx="11" ry="11" style="stroke:#181818;stroke-width:1.0;"/><path d="M586.2188,28.6406 Q585.6406,28.9375 585,29.0781 Q584.3594,29.2344 583.6563,29.2344 Q581.1563,29.2344 579.8281,27.5938 Q578.5156,25.9375 578.5156,22.8125 Q578.5156,19.6875 579.8281,18.0313 Q581.1563,16.375 583.6563,16.375 Q584.3594,16.375 585,16.5313 Q585.6563,16.6875 586.2188,16.9844 L586.2188,19.7031 Q585.5938,19.125 585,18.8594 Q584.4063,18.5781 583.7813,18.5781 Q582.4375,18.5781 581.75,19.6563 Q581.0625,20.7188 581.0625,22.8125 Q581.0625,24.9063 581.75,25.9844 Q582.4375,27.0469 583.7813,27.0469 Q584.4063,27.0469 585,26.7813 Q585.5938,26.5 586.2188,25.9219 L586.2188,28.6406 Z " fill="#000000"/><text fill="#000000" font-family="sans-serif" font-size="14" lengthAdjust="spacing" textLength="169" x="603.75" y="27.8467">TextToSpeechConverter</text><line style="stroke:#181818;stroke-width:0.5;" x1="524" x2="820" y1="39" y2="39"/><rect fill="none" height="6" style="stroke:#C82930;stroke-width:1.0;" width="6" x="531" y="49.6484"/><text fill="#000000" font-family="sans-serif" font-size="14" lengthAdjust="spacing" textLength="153" x="543" y="55.9951">speech_model: Model</text><line style="stroke:#181818;stroke-width:0.5;" x1="524" x2="820" y1="63.2969" y2="63.2969"/><ellipse cx="534" cy="76.9453" fill="#84BE84" rx="3" ry="3" style="stroke:#038048;stroke-width:1.0;"/><text fill="#000000" font-family="sans-serif" font-size="14" lengthAdjust="spacing" textLength="263" x="543" y="80.292">convert_to_speech(text: string): audio</text><ellipse cx="534" cy="93.2422" fill="#84BE84" rx="3" ry="3" style="stroke:#038048;stroke-width:1.0;"/><text fill="#000000" font-family="sans-serif" font-size="14" lengthAdjust="spacing" textLength="210" x="543" y="96.5889">adjust_speed(speed: int): void</text><ellipse cx="534" cy="109.5391" fill="#84BE84" rx="3" ry="3" style="stroke:#038048;stroke-width:1.0;"/><text fill="#000000" font-family="sans-serif" font-size="14" lengthAdjust="spacing" textLength="222" x="543" y="112.8857">adjust_volume(volume: int): void</text><ellipse cx="534" cy="125.8359" fill="#84BE84" rx="3" ry="3" style="stroke:#038048;stroke-width:1.0;"/><text fill="#000000" font-family="sans-serif" font-size="14" lengthAdjust="spacing" textLength="150" x="543" y="129.1826">pause_resume(): void</text><ellipse cx="534" cy="142.1328" fill="#84BE84" rx="3" ry="3" style="stroke:#038048;stroke-width:1.0;"/><text fill="#000000" font-family="sans-serif" font-size="14" lengthAdjust="spacing" textLength="272" x="543" y="145.4795">select_language(language: string): void</text></g><!--class Model--><g id="elem_Model"><rect codeLine="21" fill="#F1F1F1" height="129.4844" id="Model" rx="2.5" ry="2.5" style="stroke:#181818;stroke-width:0.5;" width="281" x="214.5" y="212.79"/><ellipse cx="329.75" cy="228.79" fill="#ADD1B2" rx="11" ry="11" style="stroke:#181818;stroke-width:1.0;"/><path d="M332.7188,234.4306 Q332.1406,234.7275 331.5,234.8681 Q330.8594,235.0244 330.1563,235.0244 Q327.6563,235.0244 326.3281,233.3838 Q325.0156,231.7275 325.0156,228.6025 Q325.0156,225.4775 326.3281,223.8213 Q327.6563,222.165 330.1563,222.165 Q330.8594,222.165 331.5,222.3213 Q332.1563,222.4775 332.7188,222.7744 L332.7188,225.4931 Q332.0938,224.915 331.5,224.6494 Q330.9063,224.3681 330.2813,224.3681 Q328.9375,224.3681 328.25,225.4463 Q327.5625,226.5088 327.5625,228.6025 Q327.5625,230.6963 328.25,231.7744 Q328.9375,232.8369 330.2813,232.8369 Q330.9063,232.8369 331.5,232.5713 Q332.0938,232.29 332.7188,231.7119 L332.7188,234.4306 Z " fill="#000000"/><text fill="#000000" font-family="sans-serif" font-size="14" lengthAdjust="spacing" textLength="42" x="350.25" y="233.6367">Model</text><line style="stroke:#181818;stroke-width:0.5;" x1="215.5" x2="494.5" y1="244.79" y2="244.79"/><rect fill="none" height="6" style="stroke:#C82930;stroke-width:1.0;" width="6" x="222.5" y="255.4384"/><text fill="#000000" font-family="sans-serif" font-size="14" lengthAdjust="spacing" textLength="137" x="234.5" y="261.7851">model_name: string</text><rect fill="none" height="6" style="stroke:#C82930;stroke-width:1.0;" width="6" x="222.5" y="271.7353"/><text fill="#000000" font-family="sans-serif" font-size="14" lengthAdjust="spacing" textLength="128" x="234.5" y="278.082">model_type: string</text><rect fill="none" height="6" style="stroke:#C82930;stroke-width:1.0;" width="6" x="222.5" y="288.0322"/><text fill="#000000" font-family="sans-serif" font-size="14" lengthAdjust="spacing" textLength="126" x="234.5" y="294.3789">trained_data: Data</text><line style="stroke:#181818;stroke-width:0.5;" x1="215.5" x2="494.5" y1="301.6806" y2="301.6806"/><ellipse cx="225.5" cy="315.3291" fill="#84BE84" rx="3" ry="3" style="stroke:#038048;stroke-width:1.0;"/><text fill="#000000" font-family="sans-serif" font-size="14" lengthAdjust="spacing" textLength="255" x="234.5" y="318.6757">load_model(model_path: string): void</text><ellipse cx="225.5" cy="331.6259" fill="#84BE84" rx="3" ry="3" style="stroke:#038048;stroke-width:1.0;"/><text fill="#000000" font-family="sans-serif" font-size="14" lengthAdjust="spacing" textLength="249" x="234.5" y="334.9726">predict(input_data: Data): Prediction</text></g><!--class Data--><g id="elem_Data"><rect codeLine="29" fill="#F1F1F1" height="96.8906" id="Data" rx="2.5" ry="2.5" style="stroke:#181818;stroke-width:0.5;" width="148" x="856" y="31.45"/><ellipse cx="909.75" cy="47.45" fill="#ADD1B2" rx="11" ry="11" style="stroke:#181818;stroke-width:1.0;"/><path d="M912.7188,53.0906 Q912.1406,53.3875 911.5,53.5281 Q910.8594,53.6844 910.1563,53.6844 Q907.6563,53.6844 906.3281,52.0437 Q905.0156,50.3875 905.0156,47.2625 Q905.0156,44.1375 906.3281,42.4812 Q907.6563,40.825 910.1563,40.825 Q910.8594,40.825 911.5,40.9812 Q912.1563,41.1375 912.7188,41.4344 L912.7188,44.1531 Q912.0938,43.575 911.5,43.3094 Q910.9063,43.0281 910.2813,43.0281 Q908.9375,43.0281 908.25,44.1062 Q907.5625,45.1687 907.5625,47.2625 Q907.5625,49.3562 908.25,50.4344 Q908.9375,51.4969 910.2813,51.4969 Q910.9063,51.4969 911.5,51.2312 Q912.0938,50.95 912.7188,50.3719 L912.7188,53.0906 Z " fill="#000000"/><text fill="#000000" font-family="sans-serif" font-size="14" lengthAdjust="spacing" textLength="32" x="930.25" y="52.2967">Data</text><line style="stroke:#181818;stroke-width:0.5;" x1="857" x2="1003" y1="63.45" y2="63.45"/><rect fill="none" height="6" style="stroke:#C82930;stroke-width:1.0;" width="6" x="864" y="74.0984"/><text fill="#000000" font-family="sans-serif" font-size="14" lengthAdjust="spacing" textLength="111" x="876" y="80.4451">text_data: string</text><rect fill="none" height="6" style="stroke:#C82930;stroke-width:1.0;" width="6" x="864" y="90.3953"/><text fill="#000000" font-family="sans-serif" font-size="14" lengthAdjust="spacing" textLength="122" x="876" y="96.742">audio_data: audio</text><rect fill="none" height="6" style="stroke:#C82930;stroke-width:1.0;" width="6" x="864" y="106.6922"/><text fill="#000000" font-family="sans-serif" font-size="14" lengthAdjust="spacing" textLength="112" x="876" y="113.0389">language: string</text><line style="stroke:#181818;stroke-width:0.5;" x1="857" x2="1003" y1="120.3406" y2="120.3406"/></g><!--class Prediction--><g id="elem_Prediction"><rect codeLine="35" fill="#F1F1F1" height="96.8906" id="Prediction" rx="2.5" ry="2.5" style="stroke:#181818;stroke-width:0.5;" width="192" x="1039" y="31.45"/><ellipse cx="1096.25" cy="47.45" fill="#ADD1B2" rx="11" ry="11" style="stroke:#181818;stroke-width:1.0;"/><path d="M1099.2188,53.0906 Q1098.6406,53.3875 1098,53.5281 Q1097.3594,53.6844 1096.6563,53.6844 Q1094.1563,53.6844 1092.8281,52.0437 Q1091.5156,50.3875 1091.5156,47.2625 Q1091.5156,44.1375 1092.8281,42.4812 Q1094.1563,40.825 1096.6563,40.825 Q1097.3594,40.825 1098,40.9812 Q1098.6563,41.1375 1099.2188,41.4344 L1099.2188,44.1531 Q1098.5938,43.575 1098,43.3094 Q1097.4063,43.0281 1096.7813,43.0281 Q1095.4375,43.0281 1094.75,44.1062 Q1094.0625,45.1687 1094.0625,47.2625 Q1094.0625,49.3562 1094.75,50.4344 Q1095.4375,51.4969 1096.7813,51.4969 Q1097.4063,51.4969 1098,51.2312 Q1098.5938,50.95 1099.2188,50.3719 L1099.2188,53.0906 Z " fill="#000000"/><text fill="#000000" font-family="sans-serif" font-size="14" lengthAdjust="spacing" textLength="69" x="1116.75" y="52.2967">Prediction</text><line style="stroke:#181818;stroke-width:0.5;" x1="1040" x2="1230" y1="63.45" y2="63.45"/><rect fill="none" height="6" style="stroke:#C82930;stroke-width:1.0;" width="6" x="1047" y="74.0984"/><text fill="#000000" font-family="sans-serif" font-size="14" lengthAdjust="spacing" textLength="153" x="1059" y="80.4451">generated_text: string</text><rect fill="none" height="6" style="stroke:#C82930;stroke-width:1.0;" width="6" x="1047" y="90.3953"/><text fill="#000000" font-family="sans-serif" font-size="14" lengthAdjust="spacing" textLength="166" x="1059" y="96.742">summarized_text: string</text><rect fill="none" height="6" style="stroke:#C82930;stroke-width:1.0;" width="6" x="1047" y="106.6922"/><text fill="#000000" font-family="sans-serif" font-size="14" lengthAdjust="spacing" textLength="164" x="1059" y="113.0389">generated_audio: audio</text><line style="stroke:#181818;stroke-width:0.5;" x1="1040" x2="1230" y1="120.3406" y2="120.3406"/></g><!--link TextGenerator to Model--><g id="link_TextGenerator_Model"><path codeLine="41" d="M149.21,120.48 C183.96,146.83 225.619,178.4248 265.579,208.7248 " fill="none" id="TextGenerator-to-Model" style="stroke:#181818;stroke-width:1.0;"/><polygon fill="#181818" points="270.36,212.35,265.6053,203.7249,266.3758,209.329,260.7717,210.0995,270.36,212.35" style="stroke:#181818;stroke-width:1.0;"/></g><!--link TextSummarizer to Model--><g id="link_TextSummarizer_Model"><path codeLine="42" d="M355,120.48 C355,146.83 355,176.05 355,206.35 " fill="none" id="TextSummarizer-to-Model" style="stroke:#181818;stroke-width:1.0;"/><polygon fill="#181818" points="355,212.35,359,203.35,355,207.35,351,203.35,355,212.35" style="stroke:#181818;stroke-width:1.0;"/></g><!--link TextToSpeechConverter to Model--><g id="link_TextToSpeechConverter_Model"><path codeLine="43" d="M554.86,153.19 C523.38,172.61 494.6661,190.3392 463.9561,209.2892 " fill="none" id="TextToSpeechConverter-to-Model" style="stroke:#181818;stroke-width:1.0;"/><polygon fill="#181818" points="458.85,212.44,468.6097,211.1179,463.1051,209.8143,464.4087,204.3097,458.85,212.44" style="stroke:#181818;stroke-width:1.0;"/></g><!--SRC=[TLF1ReKW4Bpx5Hnj6d_0GozjqbEJ9k_ToKOsFXe50ujvRTD_BmAAMEi1pCxip2uitG3MiYlUwHKL6Y1js7V5_DSmyb4-Qe53ozwMBSGVMH-Po1T2_T0oIqQgllgfgcwJkxXn12E_CElP50AIMfq9huIal2oh-3ykLtsP4BlRirOp6jgRXVYPInUvd3IFfACHE25r8eFuS9O2KTHXRPbKv5cpbg8apNfm8zPnEw5Du2noWtPXbP350JlY0wZUGO_r-hEhAh2tvaD3MxEXIwvWt18AW3wd8q06f4B11H2qxCMlgP91WuYdLiVa2UXsB2FrOr38Zcgf9aSx9SzwZv2_vrpo0fMp5LEAkiBP9o3VGyEE1v9bizKclWweuFkRFKpXEPfJW_jQX7ShtqZJFAMXEWnx2VoTpup_0W00]--></g></svg>