<?xml version="1.0" encoding="us-ascii" standalone="no"?><svg xmlns="http://www.w3.org/2000/svg" xmlns:xlink="http://www.w3.org/1999/xlink" contentStyleType="text/css" height="511px" preserveAspectRatio="none" style="width:664px;height:511px;background:#FFFFFF;" version="1.1" viewBox="0 0 664 511" width="664px" zoomAndPan="magnify"><defs/><g><!--cluster Text-to-Speech Application--><g id="cluster_Text-to-Speech Application"><rect fill="none" height="426" rx="2.5" ry="2.5" style="stroke:#181818;stroke-width:1.0;" width="465.24" x="193" y="7"/><text fill="#000000" font-family="sans-serif" font-size="14" font-weight="bold" lengthAdjust="spacing" textLength="214" x="318.62" y="21.9951">Text-to-Speech Application</text></g><g id="elem_UC1"><ellipse cx="580.6797" cy="392.002" fill="#F1F1F1" rx="61.5597" ry="14.782" style="stroke:#181818;stroke-width:0.5;"/><text fill="#000000" font-family="sans-serif" font-size="14" lengthAdjust="spacing" textLength="69" x="543.1797" y="395.7495">Input Text</text></g><g id="elem_UC2"><ellipse cx="287.5552" cy="57.999" fill="#F1F1F1" rx="69.6952" ry="16.339" style="stroke:#181818;stroke-width:0.5;"/><text fill="#000000" font-family="sans-serif" font-size="14" lengthAdjust="spacing" textLength="92" x="238.5552" y="61.7466">Adjust Speed</text></g><g id="elem_UC3"><ellipse cx="287.5573" cy="126.0015" fill="#F1F1F1" rx="72.3073" ry="16.8615" style="stroke:#181818;stroke-width:0.5;"/><text fill="#000000" font-family="sans-serif" font-size="14" lengthAdjust="spacing" textLength="99" x="235.0573" y="129.749">Adjust Volume</text></g><g id="elem_UC4"><ellipse cx="287.5648" cy="194.999" fill="#F1F1F1" rx="74.9948" ry="17.399" style="stroke:#181818;stroke-width:0.5;"/><text fill="#000000" font-family="sans-serif" font-size="14" lengthAdjust="spacing" textLength="106" x="231.5648" y="198.7465">Pause/Resume</text></g><g id="elem_UC5"><ellipse cx="287.5591" cy="266.0018" fill="#F1F1F1" rx="78.5591" ry="18.1118" style="stroke:#181818;stroke-width:0.5;"/><text fill="#000000" font-family="sans-serif" font-size="14" lengthAdjust="spacing" textLength="115" x="227.8328" y="269.5425">Select Language</text></g><g id="elem_UC6"><ellipse cx="287.5594" cy="334.0019" fill="#F1F1F1" rx="64.0594" ry="15.2119" style="stroke:#181818;stroke-width:0.5;"/><text fill="#000000" font-family="sans-serif" font-size="14" lengthAdjust="spacing" textLength="76" x="246.5594" y="337.7494">Save Audio</text></g><g id="elem_UC7"><ellipse cx="287.5634" cy="401.0027" fill="#F1F1F1" rx="70.0634" ry="16.4127" style="stroke:#181818;stroke-width:0.5;"/><text fill="#000000" font-family="sans-serif" font-size="14" lengthAdjust="spacing" textLength="93" x="238.0634" y="404.7502">Handle Errors</text></g><!--entity u--><g id="elem_u"><ellipse cx="22" cy="205.35" fill="#F1F1F1" rx="8" ry="8" style="stroke:#181818;stroke-width:0.5;"/><path d="M22,213.35 L22,240.35 M9,221.35 L35,221.35 M22,240.35 L9,255.35 M22,240.35 L35,255.35 " fill="none" style="stroke:#181818;stroke-width:0.5;"/><text fill="#000000" font-family="sans-serif" font-size="14" lengthAdjust="spacing" textLength="32" x="6" y="269.8451">User</text></g><!--link u to UC1--><g id="link_u_UC1"><path d="M35.01,273.48 C42.6,294.51 53.7,320.39 68,341 C108.86,399.89 118.42,425.45 185,452 C315.36,504 480.9997,438.7204 546.8097,408.1104 " fill="none" id="u-to-UC1" style="stroke:#181818;stroke-width:1.0;"/><polygon fill="#181818" points="552.25,405.58,542.4026,405.7488,547.7164,407.6887,545.7765,413.0025,552.25,405.58" style="stroke:#181818;stroke-width:1.0;"/><text fill="#000000" font-family="sans-serif" font-size="13" lengthAdjust="spacing" textLength="65" x="255.06" y="448.0669">Enter Text</text></g><!--link u to UC2--><g id="link_u_UC2"><path d="M29.21,196.44 C35.14,171.65 46.51,140.54 68,121 C109.42,83.35 166.0292,68.8465 213.6192,62.7165 " fill="none" id="u-to-UC2" style="stroke:#181818;stroke-width:1.0;"/><polygon fill="#181818" points="219.57,61.95,210.1327,59.1326,214.611,62.5888,211.1548,67.067,219.57,61.95" style="stroke:#181818;stroke-width:1.0;"/><text fill="#000000" font-family="sans-serif" font-size="13" lengthAdjust="spacing" textLength="85" x="80" y="67.0669">Adjust Speed</text></g><!--link u to UC3--><g id="link_u_UC3"><path d="M38.17,214.75 C46.13,205.4 56.58,194.88 68,188 C116.32,158.92 172.9585,144.0626 218.7485,135.6626 " fill="none" id="u-to-UC3" style="stroke:#181818;stroke-width:1.0;"/><polygon fill="#181818" points="224.65,134.58,215.076,132.2696,219.7321,135.4822,216.5195,140.1383,224.65,134.58" style="stroke:#181818;stroke-width:1.0;"/><text fill="#000000" font-family="sans-serif" font-size="13" lengthAdjust="spacing" textLength="93" x="76" y="142.0669">Adjust Volume</text></g><!--link u to UC4--><g id="link_u_UC4"><path d="M38.31,232.68 C73.63,227.32 156.5479,214.7302 217.7679,205.4402 " fill="none" id="u-to-UC4" style="stroke:#181818;stroke-width:1.0;"/><polygon fill="#181818" points="223.7,204.54,214.2017,201.9355,218.7566,205.2902,215.402,209.845,223.7,204.54" style="stroke:#181818;stroke-width:1.0;"/><text fill="#000000" font-family="sans-serif" font-size="13" lengthAdjust="spacing" textLength="95" x="75" y="209.0669">Pause/Resume</text></g><!--link u to UC5--><g id="link_u_UC5"><path d="M38.09,245.31 C46.5,250.45 57.39,256.17 68,259 C115.04,271.57 163.8032,273.4955 206.7432,272.0955 " fill="none" id="u-to-UC5" style="stroke:#181818;stroke-width:1.0;"/><polygon fill="#181818" points="212.74,271.9,203.6144,268.1954,207.7427,272.0629,203.8751,276.1912,212.74,271.9" style="stroke:#181818;stroke-width:1.0;"/><text fill="#000000" font-family="sans-serif" font-size="13" lengthAdjust="spacing" textLength="107" x="69" y="255.0669">Select Language</text></g><!--link u to UC6--><g id="link_u_UC6"><path d="M38.37,266.13 C45.74,277.92 55.68,290.33 68,298 C114.68,327.07 171.4122,334.7393 217.6922,335.9793 " fill="none" id="u-to-UC6" style="stroke:#181818;stroke-width:1.0;"/><polygon fill="#181818" points="223.69,336.14,214.8004,331.9004,218.6918,336.0061,214.5861,339.8975,223.69,336.14" style="stroke:#181818;stroke-width:1.0;"/><text fill="#000000" font-family="sans-serif" font-size="13" lengthAdjust="spacing" textLength="72" x="86.5" y="294.0669">Save Audio</text></g><!--link UC7 to UC1--><g id="link_UC7_UC1"><path d="M357.55,398.87 C406.82,397.35 466.4429,395.5058 513.5629,394.0458 " fill="none" id="UC7-to-UC1" style="stroke:#181818;stroke-width:1.0;"/><polygon fill="#181818" points="519.56,393.86,510.4404,390.1406,514.5624,394.0148,510.6882,398.1368,519.56,393.86" style="stroke:#181818;stroke-width:1.0;"/><text fill="#000000" font-family="sans-serif" font-size="13" lengthAdjust="spacing" textLength="91" x="397.12" y="391.0669">Error Handling</text></g><!--SRC=[RT1FImCn48VXUpx5q5CzB6B_2Hw4HGeLF8XhlG_PSHkR9Y6PY29-TnDTsb6yBJm_mhnhwPc1FKGpx1Xw4qcpyKwblN418nuWeDxZG1s_MuBAw0PBIg5c7s6RA08coEf8C7caDsxODrqWqZjeGx16Otrt0XyA82VIc0YcjovaXZe_guziRowajlrBJWprbNxqsJ_-v6q-q3YOoy4zbi_p1qedNqZlo9QZuQwSdKlYE5d-ck0hGPjxuqTTITsWwqlmEaOVqpYuL7K1JNDTU-0ArexBFwgH0cO5P9-W-Ob-qeGjYiagGSj2VuA4hgeUMmgKG-MDjG2-SumRrAVw0W00]--></g></svg>